<svg id="Capa_3" data-name="Capa 3" xmlns="http://www.w3.org/2000/svg" viewBox="0 0 711.5 324.5"><defs><style>.cls-1{fill:#9747ff;}</style></defs><title>Logo-bebold</title><path class="cls-1" d="M651.61,369.5a86.38,86.38,0,0,0-40.63-29c-2.27-.76-4.59-1.44-6.94-2A86.3,86.3,0,0,0,501.77,450.25h0A86.26,86.26,0,1,0,651.61,369.5ZM583.38,477a54.76,54.76,0,1,1,54.74-54.75A54.76,54.76,0,0,1,583.38,477Z" transform="translate(-146.5 -336)"/><polygon class="cls-1" points="173 220 173 221.5 171.5 221.5 173 220"/><polygon class="cls-1" points="173 220 173 221.5 171.5 221.5 173 220"/><path class="cls-1" d="M237.29,369.5a105.36,105.36,0,0,0-59.79-30.36c-1.73-.27-3.48-.48-5.25-.64Q167.2,338,162,338t-10.25.5c-1.77.16-3.52.37-5.25.64V660.5h9.88a71.1,71.1,0,0,0,50.65-121,105.76,105.76,0,0,0,30.26-170ZM177.5,624.08V554.67a39.27,39.27,0,0,1,4.06,2.83,40.63,40.63,0,0,1-4.06,66.58Zm0-107.71V371.13a74.26,74.26,0,0,1,0,145.24Z" transform="translate(-146.5 -336)"/><path class="cls-1" d="M659.9,557.5a67,67,0,0,0-56.52-31H460.64l2.79-14.37,19.3-99.3,8.43-43.33,6-31H365.5v322H603.38a66.88,66.88,0,0,0,56.52-31,67.07,67.07,0,0,0,0-72Zm-263.4-188h63.08l-30.52,157H396.5Zm205.88,260H396.5v-72H602.38a36,36,0,1,1,0,72Z" transform="translate(-146.5 -336)"/><polygon class="cls-1" points="587 293.5 587 324.5 536 324.5 536 2.5 567 2.5 567 293.5 587 293.5"/><polygon class="cls-1" points="143.11 221.5 129.12 293.5 204 293.5 204 324.5 91.51 324.5 97.54 293.5 111.53 221.5 117.56 190.5 148.08 33.5 154.1 2.5 204 2.5 204 33.5 179.66 33.5 173 67.76 149.14 190.5 143.11 221.5"/><polygon class="cls-1" points="203.75 240.25 178.25 265.75 152.75 240.25 171.5 221.5 173 221.5 173 220 178.25 214.75 203.75 240.25"/><path class="cls-1" d="M809.64,369.5a199.77,199.77,0,0,0-31.14-28.9c-1-.71-1.9-1.41-2.87-2.1H747.5v322h26.72c1.44-1,2.87-2,4.28-3.1a200.1,200.1,0,0,0,30.26-27.9,197.11,197.11,0,0,0,40.43-72,195.15,195.15,0,0,0,6.91-31A199.59,199.59,0,0,0,858,499,196.75,196.75,0,0,0,809.64,369.5Zm14.59,157a165.26,165.26,0,0,1-45.73,89.25V382.25A165.44,165.44,0,0,1,826.5,499,167.3,167.3,0,0,1,824.23,526.5Z" transform="translate(-146.5 -336)"/></svg>